<svg width="151" height="166" viewBox="0 0 151 166" fill="none" xmlns="http://www.w3.org/2000/svg">
<path fill-rule="evenodd" clip-rule="evenodd" d="M136.808 117.444C136.073 116.288 134.558 115.952 133.398 116.671C119.573 124.922 106.39 127.692 94.223 125.016C82.3763 122.41 71.6278 114.515 62.2713 101.643C60.1821 98.8226 57.2285 93.2738 54.9524 87.0033C58.9133 83.4198 62.0657 78.8196 64.1733 74.172C67.2841 67.3074 67.7695 60.4449 66.1541 56.6157C65.2588 54.4952 63.8194 52.9892 61.9423 52.0652C59.5388 50.8861 55.965 50.612 51.2242 53.0536C44.6782 56.444 41.8074 62.7867 41.7428 70.485C41.7129 74.5328 42.5176 78.9746 43.7866 83.358C40.8125 84.7793 37.4214 85.2142 33.7184 83.9158C25.8673 81.2219 21.3681 73.2187 18.8804 64.4532C16.7191 56.868 14.5402 45.8976 17.5549 38.2811C18.5779 35.6925 20.2855 33.6598 18.5805 30.9549C15.9784 26.7782 12.0583 29.5681 10.6481 33.1223C7.62283 40.7586 8.23285 50.9438 9.32363 58.8884C11.317 73.5053 18.1015 87.8094 30.659 92.4766C36.5525 94.6367 42.0756 94.2171 46.9416 92.1862C49.6263 98.5981 52.8418 104.134 55.1143 107.064C66.4108 121.34 79.1684 129.719 92.8475 132.067C106.511 134.419 121.125 130.831 136.035 120.854C137.191 120.12 137.542 118.6 136.808 117.444ZM51.8938 75.0544C51.5697 72.6268 51.5095 70.3017 51.8263 68.1775C52.2336 65.4772 53.3155 63.1366 55.7877 61.8681C56.2056 61.6577 56.7266 61.3494 57.1445 61.139C57.1944 62.121 57.23 64.0381 56.8892 65.5381C56.1131 68.8825 54.4299 72.6862 52.0442 76.039C51.9727 75.6951 51.9256 75.3771 51.8938 75.0544Z" fill="#F49040"/>
<path fill-rule="evenodd" clip-rule="evenodd" d="M128.958 121.197C127.287 123.402 125.615 125.773 124.278 128.092C122.207 131.714 120.88 135.16 121.239 137.976C121.239 139.338 122.357 140.444 123.715 140.429C125.078 140.429 126.183 139.311 126.168 137.953C126.251 137.296 126.629 136.682 127.014 135.983C127.907 134.332 129.417 132.742 131.056 131.029C133.15 128.846 135.549 126.735 137.637 124.753C139.534 122.961 141.163 121.269 142.27 119.884C144.017 117.707 144.558 115.664 144.57 114.397C144.569 114.065 143.042 108.779 138.142 109.607C136.389 109.909 131.987 110.901 131.77 110.95C129.09 111.7 124.127 113.03 119.634 113.285C118.213 113.369 116.849 113.419 115.668 113.197C115.631 113.075 115.594 112.953 115.541 112.836C114.809 111.032 112.769 110.174 110.96 110.891C109.976 111.208 108.512 112.402 108.008 113.204C107.037 114.763 107.365 116.275 108.684 117.768C110.482 119.796 113.494 120.956 117.062 121.481C120.815 122.016 125.284 121.685 128.958 121.197ZM134.667 114.239C135.046 113.792 135.221 113.439 134.888 113.275C134.516 113.089 134.622 113.821 134.667 114.239Z" fill="#F49040"/>
</svg>
