<svg width="330" height="134" viewBox="0 0 330 134" fill="none" xmlns="http://www.w3.org/2000/svg">
<rect x="0.650391" y="0.687012" width="328" height="132" rx="8.5" stroke="url(#paint0_linear_2056_16136)"/>
<rect x="1.15039" y="1.18701" width="327" height="131" rx="8" fill="#1F6A75"/>
<mask id="mask0_2056_16136" style="mask-type:alpha" maskUnits="userSpaceOnUse" x="1" y="1" width="328" height="132">
<rect x="1.15039" y="1.18701" width="327" height="131" rx="8" fill="#1F6A75"/>
</mask>
<g mask="url(#mask0_2056_16136)">
<g style="mix-blend-mode:screen" opacity="0.35" filter="url(#filter0_f_2056_16136)">
<ellipse cx="-8.34961" cy="-8.17013" rx="83.5" ry="67.941" fill="#F49040"/>
</g>
<g style="mix-blend-mode:screen" opacity="0.35" filter="url(#filter1_f_2056_16136)">
<ellipse cx="370.15" cy="152.529" rx="132" ry="107.404" fill="#F49040"/>
</g>
</g>
<path d="M252.872 62.9102L248.354 73.7462H245.204L249.776 63.2522H244.178V60.6242H252.872V62.9102ZM263.548 63.2882H257.932V65.7722C258.172 65.5082 258.508 65.2922 258.94 65.1242C259.372 64.9562 259.84 64.8722 260.344 64.8722C261.244 64.8722 261.988 65.0762 262.576 65.4842C263.176 65.8922 263.614 66.4202 263.89 67.0682C264.166 67.7162 264.304 68.4182 264.304 69.1742C264.304 70.5782 263.908 71.6942 263.116 72.5222C262.324 73.3382 261.208 73.7462 259.768 73.7462C258.808 73.7462 257.974 73.5842 257.266 73.2602C256.558 72.9242 256.012 72.4622 255.628 71.8742C255.244 71.2862 255.034 70.6082 254.998 69.8402H258.004C258.076 70.2122 258.25 70.5242 258.526 70.7762C258.802 71.0162 259.18 71.1362 259.66 71.1362C260.224 71.1362 260.644 70.9562 260.92 70.5962C261.196 70.2362 261.334 69.7562 261.334 69.1562C261.334 68.5682 261.19 68.1182 260.902 67.8062C260.614 67.4942 260.194 67.3382 259.642 67.3382C259.234 67.3382 258.898 67.4402 258.634 67.6442C258.37 67.8362 258.196 68.0942 258.112 68.4182H255.142V60.5882H263.548V63.2882ZM265.931 63.9182C265.931 62.9462 266.207 62.1962 266.759 61.6682C267.323 61.1402 268.049 60.8762 268.937 60.8762C269.825 60.8762 270.545 61.1402 271.097 61.6682C271.649 62.1962 271.925 62.9462 271.925 63.9182C271.925 64.8902 271.649 65.6402 271.097 66.1682C270.545 66.6962 269.825 66.9602 268.937 66.9602C268.049 66.9602 267.323 66.6962 266.759 66.1682C266.207 65.6402 265.931 64.8902 265.931 63.9182ZM278.153 61.0742L271.223 73.7462H268.253L275.183 61.0742H278.153ZM268.919 62.6762C268.343 62.6762 268.055 63.0902 268.055 63.9182C268.055 64.7342 268.343 65.1422 268.919 65.1422C269.195 65.1422 269.411 65.0402 269.567 64.8362C269.723 64.6322 269.801 64.3262 269.801 63.9182C269.801 63.0902 269.507 62.6762 268.919 62.6762ZM274.499 70.9022C274.499 69.9302 274.775 69.1802 275.327 68.6522C275.879 68.1242 276.599 67.8602 277.487 67.8602C278.375 67.8602 279.095 68.1242 279.647 68.6522C280.199 69.1802 280.475 69.9302 280.475 70.9022C280.475 71.8742 280.199 72.6242 279.647 73.1522C279.095 73.6802 278.375 73.9442 277.487 73.9442C276.599 73.9442 275.879 73.6802 275.327 73.1522C274.775 72.6242 274.499 71.8742 274.499 70.9022ZM277.469 69.6602C277.193 69.6602 276.977 69.7622 276.821 69.9662C276.677 70.1702 276.605 70.4822 276.605 70.9022C276.605 71.7182 276.893 72.1262 277.469 72.1262C277.745 72.1262 277.961 72.0242 278.117 71.8202C278.273 71.6162 278.351 71.3102 278.351 70.9022C278.351 70.4942 278.273 70.1882 278.117 69.9842C277.961 69.7682 277.745 69.6602 277.469 69.6602Z" fill="white"/>
<circle cx="262.65" cy="66.687" r="41.5" stroke="white" stroke-opacity="0.25" stroke-width="12"/>
<path d="M262.65 25.187C270.858 25.187 278.882 27.6209 285.707 32.181C292.531 36.7411 297.85 43.2225 300.991 50.8056C304.132 58.3888 304.954 66.733 303.353 74.7833C301.752 82.8335 297.799 90.228 291.995 96.0319C286.191 101.836 278.797 105.788 270.747 107.39C262.696 108.991 254.352 108.169 246.769 105.028C239.186 101.887 232.704 96.5678 228.144 89.7432C223.584 82.9185 221.15 74.8949 221.15 66.687" stroke="#F49040" stroke-width="12" stroke-linecap="round"/>
<path d="M31.4784 40.763C31.4784 41.739 31.2544 42.635 30.8064 43.451C30.3584 44.251 29.6704 44.899 28.7424 45.395C27.8144 45.891 26.6624 46.139 25.2864 46.139H22.7424V52.187H18.6384V35.339H25.2864C26.6304 35.339 27.7664 35.571 28.6944 36.035C29.6224 36.499 30.3184 37.139 30.7824 37.955C31.2464 38.771 31.4784 39.707 31.4784 40.763ZM24.9744 42.875C25.7584 42.875 26.3424 42.691 26.7264 42.323C27.1104 41.955 27.3024 41.435 27.3024 40.763C27.3024 40.091 27.1104 39.571 26.7264 39.203C26.3424 38.835 25.7584 38.651 24.9744 38.651H22.7424V42.875H24.9744ZM48.447 35.339V52.187H44.343V45.251H37.959V52.187H33.855V35.339H37.959V41.939H44.343V35.339H48.447ZM66.0976 35.339L60.2656 46.619V52.187H56.1616V46.619L50.3296 35.339H54.9856L58.2496 42.395L61.4896 35.339H66.0976ZM74.0872 52.355C72.8552 52.355 71.7512 52.155 70.7752 51.755C69.7992 51.355 69.0152 50.763 68.4232 49.979C67.8472 49.195 67.5432 48.251 67.5112 47.147H71.8792C71.9432 47.771 72.1592 48.251 72.5272 48.587C72.8952 48.907 73.3752 49.067 73.9672 49.067C74.5752 49.067 75.0552 48.931 75.4072 48.659C75.7592 48.371 75.9352 47.979 75.9352 47.483C75.9352 47.067 75.7912 46.723 75.5032 46.451C75.2312 46.179 74.8872 45.955 74.4712 45.779C74.0712 45.603 73.4952 45.403 72.7432 45.179C71.6552 44.843 70.7672 44.507 70.0792 44.171C69.3912 43.835 68.7992 43.339 68.3032 42.683C67.8072 42.027 67.5592 41.171 67.5592 40.115C67.5592 38.547 68.1272 37.323 69.2632 36.443C70.3992 35.547 71.8792 35.099 73.7032 35.099C75.5592 35.099 77.0552 35.547 78.1912 36.443C79.3272 37.323 79.9352 38.555 80.0152 40.139H75.5752C75.5432 39.595 75.3432 39.171 74.9752 38.867C74.6072 38.547 74.1352 38.387 73.5592 38.387C73.0632 38.387 72.6632 38.523 72.3592 38.795C72.0552 39.051 71.9032 39.427 71.9032 39.923C71.9032 40.467 72.1592 40.891 72.6712 41.195C73.1832 41.499 73.9832 41.827 75.0712 42.179C76.1592 42.547 77.0392 42.899 77.7112 43.235C78.3992 43.571 78.9912 44.059 79.4872 44.699C79.9832 45.339 80.2312 46.163 80.2312 47.171C80.2312 48.131 79.9832 49.003 79.4872 49.787C79.0072 50.571 78.3032 51.195 77.3752 51.659C76.4472 52.123 75.3512 52.355 74.0872 52.355ZM87.1008 35.339V52.187H82.9968V35.339H87.1008ZM89.619 43.739C89.619 42.075 89.979 40.595 90.699 39.299C91.419 37.987 92.419 36.971 93.699 36.251C94.995 35.515 96.459 35.147 98.091 35.147C100.091 35.147 101.803 35.675 103.227 36.731C104.651 37.787 105.603 39.227 106.083 41.051H101.571C101.235 40.347 100.755 39.811 100.131 39.443C99.523 39.075 98.827 38.891 98.043 38.891C96.779 38.891 95.755 39.331 94.971 40.211C94.187 41.091 93.795 42.267 93.795 43.739C93.795 45.211 94.187 46.387 94.971 47.267C95.755 48.147 96.779 48.587 98.043 48.587C98.827 48.587 99.523 48.403 100.131 48.035C100.755 47.667 101.235 47.131 101.571 46.427H106.083C105.603 48.251 104.651 49.691 103.227 50.747C101.803 51.787 100.091 52.307 98.091 52.307C96.459 52.307 94.995 51.947 93.699 51.227C92.419 50.491 91.419 49.475 90.699 48.179C89.979 46.883 89.619 45.403 89.619 43.739ZM114.932 52.355C113.7 52.355 112.596 52.155 111.62 51.755C110.644 51.355 109.86 50.763 109.268 49.979C108.692 49.195 108.388 48.251 108.356 47.147H112.724C112.788 47.771 113.004 48.251 113.372 48.587C113.74 48.907 114.22 49.067 114.812 49.067C115.42 49.067 115.9 48.931 116.252 48.659C116.604 48.371 116.78 47.979 116.78 47.483C116.78 47.067 116.636 46.723 116.348 46.451C116.076 46.179 115.732 45.955 115.316 45.779C114.916 45.603 114.34 45.403 113.588 45.179C112.5 44.843 111.612 44.507 110.924 44.171C110.236 43.835 109.644 43.339 109.148 42.683C108.652 42.027 108.404 41.171 108.404 40.115C108.404 38.547 108.972 37.323 110.108 36.443C111.244 35.547 112.724 35.099 114.548 35.099C116.404 35.099 117.9 35.547 119.036 36.443C120.172 37.323 120.78 38.555 120.86 40.139H116.42C116.388 39.595 116.188 39.171 115.82 38.867C115.452 38.547 114.98 38.387 114.404 38.387C113.908 38.387 113.508 38.523 113.204 38.795C112.9 39.051 112.748 39.427 112.748 39.923C112.748 40.467 113.004 40.891 113.516 41.195C114.028 41.499 114.828 41.827 115.916 42.179C117.004 42.547 117.884 42.899 118.556 43.235C119.244 43.571 119.836 44.059 120.332 44.699C120.828 45.339 121.076 46.163 121.076 47.171C121.076 48.131 120.828 49.003 120.332 49.787C119.852 50.571 119.148 51.195 118.22 51.659C117.292 52.123 116.196 52.355 114.932 52.355ZM139.488 42.059V45.467H128.928V42.059H139.488ZM152.76 35.339V52.187H148.656V35.339H152.76Z" fill="white"/>
<path d="M21.4104 66.597C21.6637 66.637 21.8937 66.7403 22.1004 66.907C22.3137 67.0737 22.4804 67.2803 22.6004 67.527C22.7271 67.7737 22.7904 68.037 22.7904 68.317C22.7904 68.6703 22.7004 68.9903 22.5204 69.277C22.3404 69.557 22.0771 69.7803 21.7304 69.947C21.3904 70.107 20.9871 70.187 20.5204 70.187H17.9204V63.217H20.4204C20.8937 63.217 21.2971 63.297 21.6304 63.457C21.9637 63.6103 22.2137 63.8203 22.3804 64.087C22.5471 64.3537 22.6304 64.6537 22.6304 64.987C22.6304 65.4003 22.5171 65.7437 22.2904 66.017C22.0704 66.2837 21.7771 66.477 21.4104 66.597ZM18.8304 66.227H20.3604C20.7871 66.227 21.1171 66.127 21.3504 65.927C21.5837 65.727 21.7004 65.4503 21.7004 65.097C21.7004 64.7437 21.5837 64.467 21.3504 64.267C21.1171 64.067 20.7804 63.967 20.3404 63.967H18.8304V66.227ZM20.4404 69.437C20.8937 69.437 21.2471 69.3303 21.5004 69.117C21.7537 68.9037 21.8804 68.607 21.8804 68.227C21.8804 67.8403 21.7471 67.537 21.4804 67.317C21.2137 67.0903 20.8571 66.977 20.4104 66.977H18.8304V69.437H20.4404ZM29.1532 67.237C29.1532 67.4103 29.1432 67.5937 29.1232 67.787H24.7432C24.7765 68.327 24.9599 68.7503 25.2932 69.057C25.6332 69.357 26.0432 69.507 26.5232 69.507C26.9165 69.507 27.2432 69.417 27.5032 69.237C27.7699 69.0503 27.9565 68.8037 28.0632 68.497H29.0432C28.8965 69.0237 28.6032 69.4537 28.1632 69.787C27.7232 70.1137 27.1765 70.277 26.5232 70.277C26.0032 70.277 25.5365 70.1603 25.1232 69.927C24.7165 69.6937 24.3965 69.3637 24.1632 68.937C23.9299 68.5037 23.8132 68.0037 23.8132 67.437C23.8132 66.8703 23.9265 66.3737 24.1532 65.947C24.3799 65.5203 24.6965 65.1937 25.1032 64.967C25.5165 64.7337 25.9899 64.617 26.5232 64.617C27.0432 64.617 27.5032 64.7303 27.9032 64.957C28.3032 65.1837 28.6099 65.497 28.8232 65.897C29.0432 66.2903 29.1532 66.737 29.1532 67.237ZM28.2132 67.047C28.2132 66.7003 28.1365 66.4037 27.9832 66.157C27.8299 65.9037 27.6199 65.7137 27.3532 65.587C27.0932 65.4537 26.8032 65.387 26.4832 65.387C26.0232 65.387 25.6299 65.5337 25.3032 65.827C24.9832 66.1203 24.7999 66.527 24.7532 67.047H28.2132ZM32.8804 67.427C32.8804 66.867 32.9937 66.377 33.2204 65.957C33.4471 65.5303 33.7571 65.2003 34.1504 64.967C34.5504 64.7337 34.9937 64.617 35.4804 64.617C35.9604 64.617 36.3771 64.7203 36.7304 64.927C37.0837 65.1337 37.3471 65.3937 37.5204 65.707V64.707H38.4404V70.187H37.5204V69.167C37.3404 69.487 37.0704 69.7537 36.7104 69.967C36.3571 70.1737 35.9437 70.277 35.4704 70.277C34.9837 70.277 34.5437 70.157 34.1504 69.917C33.7571 69.677 33.4471 69.3403 33.2204 68.907C32.9937 68.4737 32.8804 67.9803 32.8804 67.427ZM37.5204 67.437C37.5204 67.0237 37.4371 66.6637 37.2704 66.357C37.1037 66.0503 36.8771 65.817 36.5904 65.657C36.3104 65.4903 36.0004 65.407 35.6604 65.407C35.3204 65.407 35.0104 65.487 34.7304 65.647C34.4504 65.807 34.2271 66.0403 34.0604 66.347C33.8937 66.6537 33.8104 67.0137 33.8104 67.427C33.8104 67.847 33.8937 68.2137 34.0604 68.527C34.2271 68.8337 34.4504 69.0703 34.7304 69.237C35.0104 69.397 35.3204 69.477 35.6604 69.477C36.0004 69.477 36.3104 69.397 36.5904 69.237C36.8771 69.0703 37.1037 68.8337 37.2704 68.527C37.4371 68.2137 37.5204 67.8503 37.5204 67.437ZM40.9882 65.727C41.1749 65.4003 41.4482 65.1337 41.8082 64.927C42.1682 64.7203 42.5782 64.617 43.0382 64.617C43.5315 64.617 43.9749 64.7337 44.3682 64.967C44.7615 65.2003 45.0715 65.5303 45.2982 65.957C45.5249 66.377 45.6382 66.867 45.6382 67.427C45.6382 67.9803 45.5249 68.4737 45.2982 68.907C45.0715 69.3403 44.7582 69.677 44.3582 69.917C43.9649 70.157 43.5249 70.277 43.0382 70.277C42.5649 70.277 42.1482 70.1737 41.7882 69.967C41.4349 69.7603 41.1682 69.497 40.9882 69.177V70.187H40.0782V62.787H40.9882V65.727ZM44.7082 67.427C44.7082 67.0137 44.6249 66.6537 44.4582 66.347C44.2915 66.0403 44.0649 65.807 43.7782 65.647C43.4982 65.487 43.1882 65.407 42.8482 65.407C42.5149 65.407 42.2049 65.4903 41.9182 65.657C41.6382 65.817 41.4115 66.0537 41.2382 66.367C41.0715 66.6737 40.9882 67.0303 40.9882 67.437C40.9882 67.8503 41.0715 68.2137 41.2382 68.527C41.4115 68.8337 41.6382 69.0703 41.9182 69.237C42.2049 69.397 42.5149 69.477 42.8482 69.477C43.1882 69.477 43.4982 69.397 43.7782 69.237C44.0649 69.0703 44.2915 68.8337 44.4582 68.527C44.6249 68.2137 44.7082 67.847 44.7082 67.427ZM47.846 62.787V70.187H46.936V62.787H47.846ZM54.497 67.237C54.497 67.4103 54.487 67.5937 54.467 67.787H50.087C50.1203 68.327 50.3036 68.7503 50.637 69.057C50.977 69.357 51.387 69.507 51.867 69.507C52.2603 69.507 52.587 69.417 52.847 69.237C53.1136 69.0503 53.3003 68.8037 53.407 68.497H54.387C54.2403 69.0237 53.947 69.4537 53.507 69.787C53.067 70.1137 52.5203 70.277 51.867 70.277C51.347 70.277 50.8803 70.1603 50.467 69.927C50.0603 69.6937 49.7403 69.3637 49.507 68.937C49.2736 68.5037 49.157 68.0037 49.157 67.437C49.157 66.8703 49.2703 66.3737 49.497 65.947C49.7236 65.5203 50.0403 65.1937 50.447 64.967C50.8603 64.7337 51.3336 64.617 51.867 64.617C52.387 64.617 52.847 64.7303 53.247 64.957C53.647 65.1837 53.9536 65.497 54.167 65.897C54.387 66.2903 54.497 66.737 54.497 67.237ZM53.557 67.047C53.557 66.7003 53.4803 66.4037 53.327 66.157C53.1736 65.9037 52.9636 65.7137 52.697 65.587C52.437 65.4537 52.147 65.387 51.827 65.387C51.367 65.387 50.9736 65.5337 50.647 65.827C50.327 66.1203 50.1436 66.527 50.097 67.047H53.557ZM59.6741 65.457V68.687C59.6741 68.9537 59.7308 69.1437 59.8441 69.257C59.9575 69.3637 60.1541 69.417 60.4341 69.417H61.1041V70.187H60.2841C59.7775 70.187 59.3975 70.0703 59.1441 69.837C58.8908 69.6037 58.7641 69.2203 58.7641 68.687V65.457H58.0541V64.707H58.7641V63.327H59.6741V64.707H61.1041V65.457H59.6741ZM64.6967 70.277C64.1834 70.277 63.7167 70.1603 63.2967 69.927C62.8834 69.6937 62.5567 69.3637 62.3167 68.937C62.0834 68.5037 61.9667 68.0037 61.9667 67.437C61.9667 66.877 62.0867 66.3837 62.3267 65.957C62.5734 65.5237 62.9067 65.1937 63.3267 64.967C63.7467 64.7337 64.2167 64.617 64.7367 64.617C65.2567 64.617 65.7267 64.7337 66.1467 64.967C66.5667 65.1937 66.8967 65.5203 67.1367 65.947C67.3834 66.3737 67.5067 66.8703 67.5067 67.437C67.5067 68.0037 67.3801 68.5037 67.1267 68.937C66.8801 69.3637 66.5434 69.6937 66.1167 69.927C65.6901 70.1603 65.2167 70.277 64.6967 70.277ZM64.6967 69.477C65.0234 69.477 65.3301 69.4003 65.6167 69.247C65.9034 69.0937 66.1334 68.8637 66.3067 68.557C66.4867 68.2503 66.5767 67.877 66.5767 67.437C66.5767 66.997 66.4901 66.6237 66.3167 66.317C66.1434 66.0103 65.9167 65.7837 65.6367 65.637C65.3567 65.4837 65.0534 65.407 64.7267 65.407C64.3934 65.407 64.0867 65.4837 63.8067 65.637C63.5334 65.7837 63.3134 66.0103 63.1467 66.317C62.9801 66.6237 62.8967 66.997 62.8967 67.437C62.8967 67.8837 62.9767 68.2603 63.1367 68.567C63.3034 68.8737 63.5234 69.1037 63.7967 69.257C64.0701 69.4037 64.3701 69.477 64.6967 69.477ZM72.4792 69.447H74.9192V70.187H71.5692V63.217H72.4792V69.447ZM80.9856 67.237C80.9856 67.4103 80.9756 67.5937 80.9556 67.787H76.5756C76.609 68.327 76.7923 68.7503 77.1256 69.057C77.4656 69.357 77.8756 69.507 78.3556 69.507C78.749 69.507 79.0756 69.417 79.3356 69.237C79.6023 69.0503 79.789 68.8037 79.8956 68.497H80.8756C80.729 69.0237 80.4356 69.4537 79.9956 69.787C79.5556 70.1137 79.009 70.277 78.3556 70.277C77.8356 70.277 77.369 70.1603 76.9556 69.927C76.549 69.6937 76.229 69.3637 75.9956 68.937C75.7623 68.5037 75.6456 68.0037 75.6456 67.437C75.6456 66.8703 75.759 66.3737 75.9856 65.947C76.2123 65.5203 76.529 65.1937 76.9356 64.967C77.349 64.7337 77.8223 64.617 78.3556 64.617C78.8756 64.617 79.3356 64.7303 79.7356 64.957C80.1356 65.1837 80.4423 65.497 80.6556 65.897C80.8756 66.2903 80.9856 66.737 80.9856 67.237ZM80.0456 67.047C80.0456 66.7003 79.969 66.4037 79.8156 66.157C79.6623 65.9037 79.4523 65.7137 79.1856 65.587C78.9256 65.4537 78.6356 65.387 78.3156 65.387C77.8556 65.387 77.4623 65.5337 77.1356 65.827C76.8156 66.1203 76.6323 66.527 76.5856 67.047H80.0456ZM81.9468 67.427C81.9468 66.867 82.0601 66.377 82.2868 65.957C82.5135 65.5303 82.8235 65.2003 83.2168 64.967C83.6168 64.7337 84.0601 64.617 84.5468 64.617C85.0268 64.617 85.4435 64.7203 85.7968 64.927C86.1501 65.1337 86.4135 65.3937 86.5868 65.707V64.707H87.5068V70.187H86.5868V69.167C86.4068 69.487 86.1368 69.7537 85.7768 69.967C85.4235 70.1737 85.0101 70.277 84.5368 70.277C84.0501 70.277 83.6101 70.157 83.2168 69.917C82.8235 69.677 82.5135 69.3403 82.2868 68.907C82.0601 68.4737 81.9468 67.9803 81.9468 67.427ZM86.5868 67.437C86.5868 67.0237 86.5035 66.6637 86.3368 66.357C86.1701 66.0503 85.9435 65.817 85.6568 65.657C85.3768 65.4903 85.0668 65.407 84.7268 65.407C84.3868 65.407 84.0768 65.487 83.7968 65.647C83.5168 65.807 83.2935 66.0403 83.1268 66.347C82.9601 66.6537 82.8768 67.0137 82.8768 67.427C82.8768 67.847 82.9601 68.2137 83.1268 68.527C83.2935 68.8337 83.5168 69.0703 83.7968 69.237C84.0768 69.397 84.3868 69.477 84.7268 69.477C85.0668 69.477 85.3768 69.397 85.6568 69.237C85.9435 69.0703 86.1701 68.8337 86.3368 68.527C86.5035 68.2137 86.5868 67.8503 86.5868 67.437ZM90.0546 65.597C90.2146 65.2837 90.4413 65.0403 90.7346 64.867C91.0346 64.6937 91.3979 64.607 91.8246 64.607V65.547H91.5846C90.5646 65.547 90.0546 66.1003 90.0546 67.207V70.187H89.1446V64.707H90.0546V65.597ZM95.6451 64.607C96.3117 64.607 96.8517 64.8103 97.2651 65.217C97.6784 65.617 97.8851 66.197 97.8851 66.957V70.187H96.9851V67.087C96.9851 66.5403 96.8484 66.1237 96.5751 65.837C96.3017 65.5437 95.9284 65.397 95.4551 65.397C94.9751 65.397 94.5917 65.547 94.3051 65.847C94.0251 66.147 93.8851 66.5837 93.8851 67.157V70.187H92.9751V64.707H93.8851V65.487C94.0651 65.207 94.3084 64.9903 94.6151 64.837C94.9284 64.6837 95.2717 64.607 95.6451 64.607ZM101.898 67.427C101.898 66.867 102.011 66.377 102.238 65.957C102.464 65.5303 102.774 65.2003 103.168 64.967C103.568 64.7337 104.011 64.617 104.498 64.617C104.978 64.617 105.394 64.7203 105.748 64.927C106.101 65.1337 106.364 65.3937 106.538 65.707V64.707H107.458V70.187H106.538V69.167C106.358 69.487 106.088 69.7537 105.728 69.967C105.374 70.1737 104.961 70.277 104.488 70.277C104.001 70.277 103.561 70.157 103.168 69.917C102.774 69.677 102.464 69.3403 102.238 68.907C102.011 68.4737 101.898 67.9803 101.898 67.427ZM106.538 67.437C106.538 67.0237 106.454 66.6637 106.288 66.357C106.121 66.0503 105.894 65.817 105.608 65.657C105.328 65.4903 105.018 65.407 104.678 65.407C104.338 65.407 104.028 65.487 103.748 65.647C103.468 65.807 103.244 66.0403 103.078 66.347C102.911 66.6537 102.828 67.0137 102.828 67.427C102.828 67.847 102.911 68.2137 103.078 68.527C103.244 68.8337 103.468 69.0703 103.748 69.237C104.028 69.397 104.338 69.477 104.678 69.477C105.018 69.477 105.328 69.397 105.608 69.237C105.894 69.0703 106.121 68.8337 106.288 68.527C106.454 68.2137 106.538 67.8503 106.538 67.437ZM111.765 64.607C112.432 64.607 112.972 64.8103 113.385 65.217C113.799 65.617 114.005 66.197 114.005 66.957V70.187H113.105V67.087C113.105 66.5403 112.969 66.1237 112.695 65.837C112.422 65.5437 112.049 65.397 111.575 65.397C111.095 65.397 110.712 65.547 110.425 65.847C110.145 66.147 110.005 66.5837 110.005 67.157V70.187H109.095V64.707H110.005V65.487C110.185 65.207 110.429 64.9903 110.735 64.837C111.049 64.6837 111.392 64.607 111.765 64.607ZM115.252 67.427C115.252 66.867 115.365 66.377 115.592 65.957C115.819 65.5303 116.129 65.2003 116.522 64.967C116.922 64.7337 117.369 64.617 117.862 64.617C118.289 64.617 118.685 64.717 119.052 64.917C119.419 65.1103 119.699 65.367 119.892 65.687V62.787H120.812V70.187H119.892V69.157C119.712 69.4837 119.445 69.7537 119.092 69.967C118.739 70.1737 118.325 70.277 117.852 70.277C117.365 70.277 116.922 70.157 116.522 69.917C116.129 69.677 115.819 69.3403 115.592 68.907C115.365 68.4737 115.252 67.9803 115.252 67.427ZM119.892 67.437C119.892 67.0237 119.809 66.6637 119.642 66.357C119.475 66.0503 119.249 65.817 118.962 65.657C118.682 65.4903 118.372 65.407 118.032 65.407C117.692 65.407 117.382 65.487 117.102 65.647C116.822 65.807 116.599 66.0403 116.432 66.347C116.265 66.6537 116.182 67.0137 116.182 67.427C116.182 67.847 116.265 68.2137 116.432 68.527C116.599 68.8337 116.822 69.0703 117.102 69.237C117.382 69.397 117.692 69.477 118.032 69.477C118.372 69.477 118.682 69.397 118.962 69.237C119.249 69.0703 119.475 68.8337 119.642 68.527C119.809 68.2137 119.892 67.8503 119.892 67.437ZM129.336 68.637H126.296L125.736 70.187H124.776L127.296 63.257H128.346L130.856 70.187H129.896L129.336 68.637ZM129.076 67.897L127.816 64.377L126.556 67.897H129.076ZM131.714 67.437C131.714 66.8703 131.827 66.377 132.054 65.957C132.281 65.5303 132.594 65.2003 132.994 64.967C133.401 64.7337 133.864 64.617 134.384 64.617C135.057 64.617 135.611 64.7803 136.044 65.107C136.484 65.4337 136.774 65.887 136.914 66.467H135.934C135.841 66.1337 135.657 65.8703 135.384 65.677C135.117 65.4837 134.784 65.387 134.384 65.387C133.864 65.387 133.444 65.567 133.124 65.927C132.804 66.2803 132.644 66.7837 132.644 67.437C132.644 68.097 132.804 68.607 133.124 68.967C133.444 69.327 133.864 69.507 134.384 69.507C134.784 69.507 135.117 69.4137 135.384 69.227C135.651 69.0403 135.834 68.7737 135.934 68.427H136.914C136.767 68.987 136.474 69.437 136.034 69.777C135.594 70.1103 135.044 70.277 134.384 70.277C133.864 70.277 133.401 70.1603 132.994 69.927C132.594 69.6937 132.281 69.3637 132.054 68.937C131.827 68.5103 131.714 68.0103 131.714 67.437ZM143.228 67.237C143.228 67.4103 143.218 67.5937 143.198 67.787H138.818C138.852 68.327 139.035 68.7503 139.368 69.057C139.708 69.357 140.118 69.507 140.598 69.507C140.992 69.507 141.318 69.417 141.578 69.237C141.845 69.0503 142.032 68.8037 142.138 68.497H143.118C142.972 69.0237 142.678 69.4537 142.238 69.787C141.798 70.1137 141.252 70.277 140.598 70.277C140.078 70.277 139.612 70.1603 139.198 69.927C138.792 69.6937 138.472 69.3637 138.238 68.937C138.005 68.5037 137.888 68.0037 137.888 67.437C137.888 66.8703 138.002 66.3737 138.228 65.947C138.455 65.5203 138.772 65.1937 139.178 64.967C139.592 64.7337 140.065 64.617 140.598 64.617C141.118 64.617 141.578 64.7303 141.978 64.957C142.378 65.1837 142.685 65.497 142.898 65.897C143.118 66.2903 143.228 66.737 143.228 67.237ZM142.288 67.047C142.288 66.7003 142.212 66.4037 142.058 66.157C141.905 65.9037 141.695 65.7137 141.428 65.587C141.168 65.4537 140.878 65.387 140.558 65.387C140.098 65.387 139.705 65.5337 139.378 65.827C139.058 66.1203 138.875 66.527 138.828 67.047H142.288ZM152.015 64.707L148.715 72.767H147.775L148.855 70.127L146.645 64.707H147.655L149.375 69.147L151.075 64.707H152.015ZM155.42 70.277C154.907 70.277 154.44 70.1603 154.02 69.927C153.607 69.6937 153.28 69.3637 153.04 68.937C152.807 68.5037 152.69 68.0037 152.69 67.437C152.69 66.877 152.81 66.3837 153.05 65.957C153.297 65.5237 153.63 65.1937 154.05 64.967C154.47 64.7337 154.94 64.617 155.46 64.617C155.98 64.617 156.45 64.7337 156.87 64.967C157.29 65.1937 157.62 65.5203 157.86 65.947C158.107 66.3737 158.23 66.8703 158.23 67.437C158.23 68.0037 158.103 68.5037 157.85 68.937C157.603 69.3637 157.267 69.6937 156.84 69.927C156.413 70.1603 155.94 70.277 155.42 70.277ZM155.42 69.477C155.747 69.477 156.053 69.4003 156.34 69.247C156.627 69.0937 156.857 68.8637 157.03 68.557C157.21 68.2503 157.3 67.877 157.3 67.437C157.3 66.997 157.213 66.6237 157.04 66.317C156.867 66.0103 156.64 65.7837 156.36 65.637C156.08 65.4837 155.777 65.407 155.45 65.407C155.117 65.407 154.81 65.4837 154.53 65.637C154.257 65.7837 154.037 66.0103 153.87 66.317C153.703 66.6237 153.62 66.997 153.62 67.437C153.62 67.8837 153.7 68.2603 153.86 68.567C154.027 68.8737 154.247 69.1037 154.52 69.257C154.793 69.4037 155.093 69.477 155.42 69.477ZM164.387 64.707V70.187H163.477V69.377C163.303 69.657 163.06 69.877 162.747 70.037C162.44 70.1903 162.1 70.267 161.727 70.267C161.3 70.267 160.917 70.1803 160.577 70.007C160.237 69.827 159.967 69.5603 159.767 69.207C159.573 68.8537 159.477 68.4237 159.477 67.917V64.707H160.377V67.797C160.377 68.337 160.513 68.7537 160.787 69.047C161.06 69.3337 161.433 69.477 161.907 69.477C162.393 69.477 162.777 69.327 163.057 69.027C163.337 68.727 163.477 68.2903 163.477 67.717V64.707H164.387ZM166.933 65.597C167.093 65.2837 167.32 65.0403 167.613 64.867C167.913 64.6937 168.276 64.607 168.703 64.607V65.547H168.463C167.443 65.547 166.933 66.1003 166.933 67.207V70.187H166.023V64.707H166.933V65.597ZM22.5804 75.257C22.5804 75.837 22.3804 76.3203 21.9804 76.707C21.5871 77.087 20.9837 77.277 20.1704 77.277H18.8304V80.187H17.9204V73.217H20.1704C20.9571 73.217 21.5537 73.407 21.9604 73.787C22.3737 74.167 22.5804 74.657 22.5804 75.257ZM20.1704 76.527C20.6771 76.527 21.0504 76.417 21.2904 76.197C21.5304 75.977 21.6504 75.6637 21.6504 75.257C21.6504 74.397 21.1571 73.967 20.1704 73.967H18.8304V76.527H20.1704ZM26.5314 74.607C26.9447 74.607 27.3181 74.697 27.6514 74.877C27.9847 75.0503 28.2447 75.3137 28.4314 75.667C28.6247 76.0203 28.7214 76.4503 28.7214 76.957V80.187H27.8214V77.087C27.8214 76.5403 27.6847 76.1237 27.4114 75.837C27.1381 75.5437 26.7647 75.397 26.2914 75.397C25.8114 75.397 25.4281 75.547 25.1414 75.847C24.8614 76.147 24.7214 76.5837 24.7214 77.157V80.187H23.8114V72.787H24.7214V75.487C24.9014 75.207 25.1481 74.9903 25.4614 74.837C25.7814 74.6837 26.1381 74.607 26.5314 74.607ZM35.0279 74.707L31.7279 82.767H30.7879L31.8679 80.127L29.6579 74.707H30.6679L32.3879 79.147L34.0879 74.707H35.0279ZM37.9827 80.277C37.5627 80.277 37.186 80.207 36.8527 80.067C36.5193 79.9203 36.256 79.7203 36.0627 79.467C35.8693 79.207 35.7627 78.9103 35.7427 78.577H36.6827C36.7093 78.8503 36.836 79.0737 37.0627 79.247C37.296 79.4203 37.5993 79.507 37.9727 79.507C38.3193 79.507 38.5927 79.4303 38.7927 79.277C38.9927 79.1237 39.0927 78.9303 39.0927 78.697C39.0927 78.457 38.986 78.2803 38.7727 78.167C38.5593 78.047 38.2293 77.9303 37.7827 77.817C37.376 77.7103 37.0427 77.6037 36.7827 77.497C36.5293 77.3837 36.3093 77.2203 36.1227 77.007C35.9427 76.787 35.8527 76.5003 35.8527 76.147C35.8527 75.867 35.936 75.6103 36.1027 75.377C36.2693 75.1437 36.506 74.9603 36.8127 74.827C37.1193 74.687 37.4693 74.617 37.8627 74.617C38.4693 74.617 38.9593 74.7703 39.3327 75.077C39.706 75.3837 39.906 75.8037 39.9327 76.337H39.0227C39.0027 76.0503 38.886 75.8203 38.6727 75.647C38.466 75.4737 38.186 75.387 37.8327 75.387C37.506 75.387 37.246 75.457 37.0527 75.597C36.8593 75.737 36.7627 75.9203 36.7627 76.147C36.7627 76.327 36.8193 76.477 36.9327 76.597C37.0527 76.7103 37.1993 76.8037 37.3727 76.877C37.5527 76.9437 37.7993 77.0203 38.1127 77.107C38.506 77.2137 38.826 77.3203 39.0727 77.427C39.3193 77.527 39.5293 77.6803 39.7027 77.887C39.8827 78.0937 39.976 78.3637 39.9827 78.697C39.9827 78.997 39.8993 79.267 39.7327 79.507C39.566 79.747 39.3293 79.937 39.0227 80.077C38.7227 80.2103 38.376 80.277 37.9827 80.277ZM41.8373 73.817C41.6639 73.817 41.5173 73.757 41.3973 73.637C41.2773 73.517 41.2173 73.3703 41.2173 73.197C41.2173 73.0237 41.2773 72.877 41.3973 72.757C41.5173 72.637 41.6639 72.577 41.8373 72.577C42.0039 72.577 42.1439 72.637 42.2573 72.757C42.3773 72.877 42.4373 73.0237 42.4373 73.197C42.4373 73.3703 42.3773 73.517 42.2573 73.637C42.1439 73.757 42.0039 73.817 41.8373 73.817ZM42.2773 74.707V80.187H41.3673V74.707H42.2773ZM43.5882 77.437C43.5882 76.8703 43.7015 76.377 43.9282 75.957C44.1549 75.5303 44.4682 75.2003 44.8682 74.967C45.2749 74.7337 45.7382 74.617 46.2582 74.617C46.9315 74.617 47.4849 74.7803 47.9182 75.107C48.3582 75.4337 48.6482 75.887 48.7882 76.467H47.8082C47.7149 76.1337 47.5315 75.8703 47.2582 75.677C46.9915 75.4837 46.6582 75.387 46.2582 75.387C45.7382 75.387 45.3182 75.567 44.9982 75.927C44.6782 76.2803 44.5182 76.7837 44.5182 77.437C44.5182 78.097 44.6782 78.607 44.9982 78.967C45.3182 79.327 45.7382 79.507 46.2582 79.507C46.6582 79.507 46.9915 79.4137 47.2582 79.227C47.5249 79.0403 47.7082 78.7737 47.8082 78.427H48.7882C48.6415 78.987 48.3482 79.437 47.9082 79.777C47.4682 80.1103 46.9182 80.277 46.2582 80.277C45.7382 80.277 45.2749 80.1603 44.8682 79.927C44.4682 79.6937 44.1549 79.3637 43.9282 78.937C43.7015 78.5103 43.5882 78.0103 43.5882 77.437ZM52.0424 80.277C51.6224 80.277 51.2458 80.207 50.9124 80.067C50.5791 79.9203 50.3158 79.7203 50.1224 79.467C49.9291 79.207 49.8224 78.9103 49.8024 78.577H50.7424C50.7691 78.8503 50.8958 79.0737 51.1224 79.247C51.3558 79.4203 51.6591 79.507 52.0324 79.507C52.3791 79.507 52.6524 79.4303 52.8524 79.277C53.0524 79.1237 53.1524 78.9303 53.1524 78.697C53.1524 78.457 53.0458 78.2803 52.8324 78.167C52.6191 78.047 52.2891 77.9303 51.8424 77.817C51.4358 77.7103 51.1024 77.6037 50.8424 77.497C50.5891 77.3837 50.3691 77.2203 50.1824 77.007C50.0024 76.787 49.9124 76.5003 49.9124 76.147C49.9124 75.867 49.9958 75.6103 50.1624 75.377C50.3291 75.1437 50.5658 74.9603 50.8724 74.827C51.1791 74.687 51.5291 74.617 51.9224 74.617C52.5291 74.617 53.0191 74.7703 53.3924 75.077C53.7658 75.3837 53.9658 75.8037 53.9924 76.337H53.0824C53.0624 76.0503 52.9458 75.8203 52.7324 75.647C52.5258 75.4737 52.2458 75.387 51.8924 75.387C51.5658 75.387 51.3058 75.457 51.1124 75.597C50.9191 75.737 50.8224 75.9203 50.8224 76.147C50.8224 76.327 50.8791 76.477 50.9924 76.597C51.1124 76.7103 51.2591 76.8037 51.4324 76.877C51.6124 76.9437 51.8591 77.0203 52.1724 77.107C52.5658 77.2137 52.8858 77.3203 53.1324 77.427C53.3791 77.527 53.5891 77.6803 53.7624 77.887C53.9424 78.0937 54.0358 78.3637 54.0424 78.697C54.0424 78.997 53.9591 79.267 53.7924 79.507C53.6258 79.747 53.3891 79.937 53.0824 80.077C52.7824 80.2103 52.4358 80.277 52.0424 80.277ZM59.103 73.957V76.287H61.643V77.037H59.103V79.437H61.943V80.187H58.193V73.207H61.943V73.957H59.103ZM66.28 80.187L64.98 78.147L63.73 80.187H62.78L64.55 77.467L62.78 74.707H63.81L65.11 76.737L66.35 74.707H67.3L65.54 77.417L67.31 80.187H66.28ZM67.9652 77.427C67.9652 76.867 68.0785 76.377 68.3052 75.957C68.5318 75.5303 68.8418 75.2003 69.2352 74.967C69.6352 74.7337 70.0785 74.617 70.5652 74.617C71.0452 74.617 71.4618 74.7203 71.8152 74.927C72.1685 75.1337 72.4318 75.3937 72.6052 75.707V74.707H73.5252V80.187H72.6052V79.167C72.4252 79.487 72.1552 79.7537 71.7952 79.967C71.4418 80.1737 71.0285 80.277 70.5552 80.277C70.0685 80.277 69.6285 80.157 69.2352 79.917C68.8418 79.677 68.5318 79.3403 68.3052 78.907C68.0785 78.4737 67.9652 77.9803 67.9652 77.427ZM72.6052 77.437C72.6052 77.0237 72.5218 76.6637 72.3552 76.357C72.1885 76.0503 71.9618 75.817 71.6752 75.657C71.3952 75.4903 71.0852 75.407 70.7452 75.407C70.4052 75.407 70.0952 75.487 69.8152 75.647C69.5352 75.807 69.3118 76.0403 69.1452 76.347C68.9785 76.6537 68.8952 77.0137 68.8952 77.427C68.8952 77.847 68.9785 78.2137 69.1452 78.527C69.3118 78.8337 69.5352 79.0703 69.8152 79.237C70.0952 79.397 70.4052 79.477 70.7452 79.477C71.0852 79.477 71.3952 79.397 71.6752 79.237C71.9618 79.0703 72.1885 78.8337 72.3552 78.527C72.5218 78.2137 72.6052 77.8503 72.6052 77.437ZM81.753 74.607C82.1796 74.607 82.5596 74.697 82.893 74.877C83.2263 75.0503 83.4896 75.3137 83.683 75.667C83.8763 76.0203 83.973 76.4503 83.973 76.957V80.187H83.073V77.087C83.073 76.5403 82.9363 76.1237 82.663 75.837C82.3963 75.5437 82.033 75.397 81.573 75.397C81.0996 75.397 80.723 75.5503 80.443 75.857C80.163 76.157 80.023 76.5937 80.023 77.167V80.187H79.123V77.087C79.123 76.5403 78.9863 76.1237 78.713 75.837C78.4463 75.5437 78.083 75.397 77.623 75.397C77.1496 75.397 76.773 75.5503 76.493 75.857C76.213 76.157 76.073 76.5937 76.073 77.167V80.187H75.163V74.707H76.073V75.497C76.253 75.2103 76.493 74.9903 76.793 74.837C77.0996 74.6837 77.4363 74.607 77.803 74.607C78.263 74.607 78.6696 74.7103 79.023 74.917C79.3763 75.1237 79.6396 75.427 79.813 75.827C79.9663 75.4403 80.2196 75.1403 80.573 74.927C80.9263 74.7137 81.3196 74.607 81.753 74.607ZM85.8557 80.247C85.6824 80.247 85.5357 80.187 85.4157 80.067C85.2957 79.947 85.2357 79.8003 85.2357 79.627C85.2357 79.4537 85.2957 79.307 85.4157 79.187C85.5357 79.067 85.6824 79.007 85.8557 79.007C86.0224 79.007 86.1624 79.067 86.2757 79.187C86.3957 79.307 86.4557 79.4537 86.4557 79.627C86.4557 79.8003 86.3957 79.947 86.2757 80.067C86.1624 80.187 86.0224 80.247 85.8557 80.247Z" fill="white"/>
<path d="M20.2944 25.243C19.7771 25.243 19.3051 25.123 18.8784 24.883C18.4517 24.6377 18.1131 24.299 17.8624 23.867C17.6171 23.4297 17.4944 22.939 17.4944 22.395C17.4944 21.851 17.6171 21.363 17.8624 20.931C18.1131 20.4937 18.4517 20.155 18.8784 19.915C19.3051 19.6697 19.7771 19.547 20.2944 19.547C20.8171 19.547 21.2917 19.6697 21.7184 19.915C22.1451 20.155 22.4811 20.491 22.7264 20.923C22.9717 21.355 23.0944 21.8457 23.0944 22.395C23.0944 22.9443 22.9717 23.435 22.7264 23.867C22.4811 24.299 22.1451 24.6377 21.7184 24.883C21.2917 25.123 20.8171 25.243 20.2944 25.243ZM20.2944 24.611C20.6837 24.611 21.0331 24.5203 21.3424 24.339C21.6571 24.1577 21.9024 23.899 22.0784 23.563C22.2597 23.227 22.3504 22.8377 22.3504 22.395C22.3504 21.947 22.2597 21.5577 22.0784 21.227C21.9024 20.891 21.6597 20.6323 21.3504 20.451C21.0411 20.2697 20.6891 20.179 20.2944 20.179C19.8997 20.179 19.5477 20.2697 19.2384 20.451C18.9291 20.6323 18.6837 20.891 18.5024 21.227C18.3264 21.5577 18.2384 21.947 18.2384 22.395C18.2384 22.8377 18.3264 23.227 18.5024 23.563C18.6837 23.899 18.9291 24.1577 19.2384 24.339C19.5531 24.5203 19.9051 24.611 20.2944 24.611ZM26.2715 20.723C26.8048 20.723 27.2368 20.8857 27.5675 21.211C27.8981 21.531 28.0635 21.995 28.0635 22.603V25.187H27.3435V22.707C27.3435 22.2697 27.2341 21.9363 27.0155 21.707C26.7968 21.4723 26.4981 21.355 26.1195 21.355C25.7355 21.355 25.4288 21.475 25.1995 21.715C24.9755 21.955 24.8635 22.3043 24.8635 22.763V25.187H24.1355V20.803H24.8635V21.427C25.0075 21.203 25.2021 21.0297 25.4475 20.907C25.6981 20.7843 25.9728 20.723 26.2715 20.723ZM31.1406 20.731C31.5193 20.731 31.85 20.8137 32.1326 20.979C32.4206 21.1443 32.634 21.3523 32.7726 21.603V20.803H33.5086V25.283C33.5086 25.683 33.4233 26.0377 33.2526 26.347C33.082 26.6617 32.8366 26.907 32.5166 27.083C32.202 27.259 31.834 27.347 31.4126 27.347C30.8366 27.347 30.3566 27.211 29.9726 26.939C29.5886 26.667 29.362 26.2963 29.2926 25.827H30.0126C30.0926 26.0937 30.258 26.307 30.5086 26.467C30.7593 26.6323 31.0606 26.715 31.4126 26.715C31.8126 26.715 32.138 26.5897 32.3886 26.339C32.6446 26.0883 32.7726 25.7363 32.7726 25.283V24.363C32.6286 24.619 32.4153 24.8323 32.1326 25.003C31.85 25.1737 31.5193 25.259 31.1406 25.259C30.7513 25.259 30.3966 25.163 30.0766 24.971C29.762 24.779 29.514 24.5097 29.3326 24.163C29.1513 23.8163 29.0606 23.4217 29.0606 22.979C29.0606 22.531 29.1513 22.139 29.3326 21.803C29.514 21.4617 29.762 21.1977 30.0766 21.011C30.3966 20.8243 30.7513 20.731 31.1406 20.731ZM32.7726 22.987C32.7726 22.6563 32.706 22.3683 32.5726 22.123C32.4393 21.8777 32.258 21.691 32.0286 21.563C31.8046 21.4297 31.5566 21.363 31.2846 21.363C31.0126 21.363 30.7646 21.427 30.5406 21.555C30.3166 21.683 30.138 21.8697 30.0046 22.115C29.8713 22.3603 29.8046 22.6483 29.8046 22.979C29.8046 23.315 29.8713 23.6083 30.0046 23.859C30.138 24.1043 30.3166 24.2937 30.5406 24.427C30.7646 24.555 31.0126 24.619 31.2846 24.619C31.5566 24.619 31.8046 24.555 32.0286 24.427C32.258 24.2937 32.4393 24.1043 32.5726 23.859C32.706 23.6083 32.7726 23.3177 32.7726 22.987ZM36.7309 25.259C36.3202 25.259 35.9469 25.1657 35.6109 24.979C35.2802 24.7923 35.0189 24.5283 34.8269 24.187C34.6402 23.8403 34.5469 23.4403 34.5469 22.987C34.5469 22.539 34.6429 22.1443 34.8349 21.803C35.0322 21.4563 35.2989 21.1923 35.6349 21.011C35.9709 20.8243 36.3469 20.731 36.7629 20.731C37.1789 20.731 37.5549 20.8243 37.8909 21.011C38.2269 21.1923 38.4909 21.4537 38.6829 21.795C38.8802 22.1363 38.9789 22.5337 38.9789 22.987C38.9789 23.4403 38.8776 23.8403 38.6749 24.187C38.4776 24.5283 38.2082 24.7923 37.8669 24.979C37.5256 25.1657 37.1469 25.259 36.7309 25.259ZM36.7309 24.619C36.9922 24.619 37.2376 24.5577 37.4669 24.435C37.6962 24.3123 37.8802 24.1283 38.0189 23.883C38.1629 23.6377 38.2349 23.339 38.2349 22.987C38.2349 22.635 38.1656 22.3363 38.0269 22.091C37.8882 21.8457 37.7069 21.6643 37.4829 21.547C37.2589 21.4243 37.0162 21.363 36.7549 21.363C36.4882 21.363 36.2429 21.4243 36.0189 21.547C35.8002 21.6643 35.6242 21.8457 35.4909 22.091C35.3576 22.3363 35.2909 22.635 35.2909 22.987C35.2909 23.3443 35.3549 23.6457 35.4829 23.891C35.6162 24.1363 35.7922 24.3203 36.0109 24.443C36.2296 24.5603 36.4696 24.619 36.7309 24.619ZM40.3921 20.091C40.2534 20.091 40.1361 20.043 40.0401 19.947C39.9441 19.851 39.8961 19.7337 39.8961 19.595C39.8961 19.4563 39.9441 19.339 40.0401 19.243C40.1361 19.147 40.2534 19.099 40.3921 19.099C40.5254 19.099 40.6374 19.147 40.7281 19.243C40.8241 19.339 40.8721 19.4563 40.8721 19.595C40.8721 19.7337 40.8241 19.851 40.7281 19.947C40.6374 20.043 40.5254 20.091 40.3921 20.091ZM40.7441 20.803V25.187H40.0161V20.803H40.7441ZM44.2008 20.723C44.7342 20.723 45.1662 20.8857 45.4968 21.211C45.8275 21.531 45.9928 21.995 45.9928 22.603V25.187H45.2728V22.707C45.2728 22.2697 45.1635 21.9363 44.9448 21.707C44.7262 21.4723 44.4275 21.355 44.0488 21.355C43.6648 21.355 43.3582 21.475 43.1288 21.715C42.9048 21.955 42.7928 22.3043 42.7928 22.763V25.187H42.0648V20.803H42.7928V21.427C42.9368 21.203 43.1315 21.0297 43.3768 20.907C43.6275 20.7843 43.9022 20.723 44.2008 20.723ZM49.07 20.731C49.4487 20.731 49.7793 20.8137 50.062 20.979C50.35 21.1443 50.5633 21.3523 50.702 21.603V20.803H51.438V25.283C51.438 25.683 51.3527 26.0377 51.182 26.347C51.0113 26.6617 50.766 26.907 50.446 27.083C50.1313 27.259 49.7633 27.347 49.342 27.347C48.766 27.347 48.286 27.211 47.902 26.939C47.518 26.667 47.2913 26.2963 47.222 25.827H47.942C48.022 26.0937 48.1873 26.307 48.438 26.467C48.6887 26.6323 48.99 26.715 49.342 26.715C49.742 26.715 50.0673 26.5897 50.318 26.339C50.574 26.0883 50.702 25.7363 50.702 25.283V24.363C50.558 24.619 50.3447 24.8323 50.062 25.003C49.7793 25.1737 49.4487 25.259 49.07 25.259C48.6807 25.259 48.326 25.163 48.006 24.971C47.6913 24.779 47.4433 24.5097 47.262 24.163C47.0807 23.8163 46.99 23.4217 46.99 22.979C46.99 22.531 47.0807 22.139 47.262 21.803C47.4433 21.4617 47.6913 21.1977 48.006 21.011C48.326 20.8243 48.6807 20.731 49.07 20.731ZM50.702 22.987C50.702 22.6563 50.6353 22.3683 50.502 22.123C50.3687 21.8777 50.1873 21.691 49.958 21.563C49.734 21.4297 49.486 21.363 49.214 21.363C48.942 21.363 48.694 21.427 48.47 21.555C48.246 21.683 48.0673 21.8697 47.934 22.115C47.8007 22.3603 47.734 22.6483 47.734 22.979C47.734 23.315 47.8007 23.6083 47.934 23.859C48.0673 24.1043 48.246 24.2937 48.47 24.427C48.694 24.555 48.942 24.619 49.214 24.619C49.486 24.619 49.734 24.555 49.958 24.427C50.1873 24.2937 50.3687 24.1043 50.502 23.859C50.6353 23.6083 50.702 23.3177 50.702 22.987ZM60.2139 21.947V22.563H57.0219V21.947H60.2139ZM65.7738 20.067V19.403H67.2778V25.187H66.5418V20.067H65.7738ZM69.6643 22.179C69.3656 22.0617 69.1363 21.891 68.9763 21.667C68.8163 21.443 68.7363 21.171 68.7363 20.851C68.7363 20.563 68.8083 20.3043 68.9523 20.075C69.0963 19.8403 69.3096 19.6563 69.5923 19.523C69.8803 19.3843 70.2269 19.315 70.6323 19.315C71.0376 19.315 71.3816 19.3843 71.6643 19.523C71.9523 19.6563 72.1683 19.8403 72.3123 20.075C72.4616 20.3043 72.5363 20.563 72.5363 20.851C72.5363 21.1603 72.4536 21.4323 72.2883 21.667C72.1229 21.8963 71.8963 22.067 71.6083 22.179C71.9389 22.2803 72.2003 22.459 72.3923 22.715C72.5896 22.9657 72.6883 23.2697 72.6883 23.627C72.6883 23.9737 72.6029 24.2777 72.4323 24.539C72.2616 24.795 72.0189 24.995 71.7043 25.139C71.3949 25.2777 71.0376 25.347 70.6323 25.347C70.2269 25.347 69.8696 25.2777 69.5603 25.139C69.2563 24.995 69.0189 24.795 68.8483 24.539C68.6776 24.2777 68.5923 23.9737 68.5923 23.627C68.5923 23.2697 68.6883 22.963 68.8803 22.707C69.0723 22.451 69.3336 22.275 69.6643 22.179ZM71.8323 20.939C71.8323 20.6137 71.7256 20.363 71.5123 20.187C71.2989 20.011 71.0056 19.923 70.6323 19.923C70.2643 19.923 69.9736 20.011 69.7603 20.187C69.5469 20.363 69.4403 20.6163 69.4403 20.947C69.4403 21.2457 69.5496 21.4857 69.7683 21.667C69.9923 21.8483 70.2803 21.939 70.6323 21.939C70.9896 21.939 71.2776 21.8483 71.4963 21.667C71.7203 21.4803 71.8323 21.2377 71.8323 20.939ZM70.6323 22.499C70.2376 22.499 69.9149 22.5923 69.6643 22.779C69.4136 22.9603 69.2883 23.235 69.2883 23.603C69.2883 23.9443 69.4083 24.219 69.6483 24.427C69.8936 24.635 70.2216 24.739 70.6323 24.739C71.0429 24.739 71.3683 24.635 71.6083 24.427C71.8483 24.219 71.9683 23.9443 71.9683 23.603C71.9683 23.2457 71.8456 22.9737 71.6003 22.787C71.3549 22.595 71.0323 22.499 70.6323 22.499ZM76.5751 17.651L74.3831 26.547H73.6631L75.8471 17.651H76.5751ZM77.5318 24.603C78.2092 24.059 78.7398 23.6137 79.1238 23.267C79.5078 22.915 79.8305 22.5497 80.0918 22.171C80.3585 21.787 80.4918 21.411 80.4918 21.043C80.4918 20.6963 80.4065 20.4243 80.2358 20.227C80.0705 20.0243 79.8012 19.923 79.4278 19.923C79.0652 19.923 78.7825 20.0377 78.5798 20.267C78.3825 20.491 78.2758 20.7923 78.2598 21.171H77.5558C77.5772 20.5737 77.7585 20.1123 78.0998 19.787C78.4412 19.4617 78.8812 19.299 79.4198 19.299C79.9692 19.299 80.4038 19.451 80.7238 19.755C81.0492 20.059 81.2118 20.4777 81.2118 21.011C81.2118 21.4537 81.0785 21.8857 80.8118 22.307C80.5505 22.723 80.2518 23.091 79.9158 23.411C79.5798 23.7257 79.1505 24.0937 78.6278 24.515H81.3798V25.123H77.5318V24.603ZM85.9894 20.035H83.1814V21.859C83.3041 21.6883 83.4854 21.5497 83.7254 21.443C83.9654 21.331 84.2241 21.275 84.5014 21.275C84.9441 21.275 85.3041 21.3683 85.5814 21.555C85.8587 21.7363 86.0561 21.9737 86.1734 22.267C86.2961 22.555 86.3574 22.8617 86.3574 23.187C86.3574 23.571 86.2854 23.915 86.1414 24.219C85.9974 24.523 85.7761 24.763 85.4774 24.939C85.1841 25.115 84.8187 25.203 84.3814 25.203C83.8214 25.203 83.3681 25.059 83.0214 24.771C82.6747 24.483 82.4641 24.099 82.3894 23.619H83.1014C83.1707 23.923 83.3174 24.1603 83.5414 24.331C83.7654 24.5017 84.0481 24.587 84.3894 24.587C84.8107 24.587 85.1281 24.4617 85.3414 24.211C85.5547 23.955 85.6614 23.619 85.6614 23.203C85.6614 22.787 85.5547 22.467 85.3414 22.243C85.1281 22.0137 84.8134 21.899 84.3974 21.899C84.1147 21.899 83.8667 21.9683 83.6534 22.107C83.4454 22.2403 83.2934 22.4243 83.1974 22.659H82.5094V19.395H85.9894V20.035Z" fill="white"/>
<rect x="17.1504" y="91.187" width="86" height="25" rx="12.5" fill="#F49040"/>
<path d="M33.3826 103.499C33.3826 101.003 35.2906 99.239 37.6426 99.239C39.3826 99.239 40.8826 100.115 41.5186 101.747H39.8746C39.4306 100.859 38.6386 100.439 37.6426 100.439C35.9866 100.439 34.7866 101.615 34.7866 103.499C34.7866 105.383 35.9866 106.571 37.6426 106.571C38.6386 106.571 39.4306 106.151 39.8746 105.263H41.5186C40.8826 106.895 39.3826 107.759 37.6426 107.759C35.2906 107.759 33.3826 106.007 33.3826 103.499ZM49.2878 104.375C49.2878 106.451 47.7518 107.795 45.8558 107.795C43.9718 107.795 42.5438 106.451 42.5438 104.375C42.5438 102.299 44.0318 100.967 45.9158 100.967C47.7998 100.967 49.2878 102.299 49.2878 104.375ZM43.9358 104.375C43.9358 105.875 44.8238 106.607 45.8558 106.607C46.8758 106.607 47.8838 105.875 47.8838 104.375C47.8838 102.875 46.9118 102.155 45.8918 102.155C44.8598 102.155 43.9358 102.875 43.9358 104.375ZM55.2002 107.687V103.991C55.2002 102.779 54.5402 102.155 53.5442 102.155C52.5362 102.155 51.8762 102.779 51.8762 103.991V107.687H50.5082V101.075H51.8762V101.831C52.3202 101.291 53.0522 100.967 53.8442 100.967C55.3922 100.967 56.5562 101.939 56.5562 103.787V107.687H55.2002ZM58.3851 105.851V102.191H57.6051V101.075H58.3851V99.431H59.7651V101.075H61.3731V102.191H59.7651V105.851C59.7651 106.343 59.9571 106.547 60.5331 106.547H61.3731V107.687H60.2931C59.1171 107.687 58.3851 107.195 58.3851 105.851ZM62.502 107.687V101.075H63.87V107.687H62.502ZM63.198 100.199C62.706 100.199 62.322 99.815 62.322 99.323C62.322 98.831 62.706 98.447 63.198 98.447C63.678 98.447 64.062 98.831 64.062 99.323C64.062 99.815 63.678 100.199 63.198 100.199ZM70.226 107.687V103.991C70.226 102.779 69.566 102.155 68.57 102.155C67.562 102.155 66.902 102.779 66.902 103.991V107.687H65.534V101.075H66.902V101.831C67.346 101.291 68.078 100.967 68.87 100.967C70.418 100.967 71.582 101.939 71.582 103.787V107.687H70.226ZM79.183 101.075V107.687H77.815V106.895C77.383 107.459 76.639 107.783 75.859 107.783C74.311 107.783 73.135 106.811 73.135 104.963V101.075H74.491V104.759C74.491 105.971 75.151 106.595 76.147 106.595C77.155 106.595 77.815 105.971 77.815 104.759V101.075H79.183ZM83.64 102.119C82.716 102.119 81.972 102.743 81.828 103.787H85.488C85.464 102.767 84.66 102.119 83.64 102.119ZM86.736 105.719C86.364 106.871 85.32 107.795 83.7 107.795C81.804 107.795 80.4 106.451 80.4 104.375C80.4 102.299 81.744 100.967 83.7 100.967C85.584 100.967 86.916 102.275 86.916 104.219C86.916 104.447 86.904 104.663 86.868 104.891H81.816C81.912 105.983 82.692 106.643 83.7 106.643C84.54 106.643 85.008 106.235 85.26 105.719H86.736Z" fill="white"/>
<defs>
<filter id="filter0_f_2056_16136" x="-155.85" y="-140.111" width="295" height="263.882" filterUnits="userSpaceOnUse" color-interpolation-filters="sRGB">
<feFlood flood-opacity="0" result="BackgroundImageFix"/>
<feBlend mode="normal" in="SourceGraphic" in2="BackgroundImageFix" result="shape"/>
<feGaussianBlur stdDeviation="32" result="effect1_foregroundBlur_2056_16136"/>
</filter>
<filter id="filter1_f_2056_16136" x="174.15" y="-18.8751" width="392" height="342.807" filterUnits="userSpaceOnUse" color-interpolation-filters="sRGB">
<feFlood flood-opacity="0" result="BackgroundImageFix"/>
<feBlend mode="normal" in="SourceGraphic" in2="BackgroundImageFix" result="shape"/>
<feGaussianBlur stdDeviation="32" result="effect1_foregroundBlur_2056_16136"/>
</filter>
<linearGradient id="paint0_linear_2056_16136" x1="164.65" y1="1.18701" x2="164.65" y2="132.187" gradientUnits="userSpaceOnUse">
<stop stop-color="white"/>
<stop offset="1" stop-color="#F49040"/>
</linearGradient>
</defs>
</svg>
